<svg xmlns="http://www.w3.org/2000/svg" version="1.1" xmlns:xlink="http://www.w3.org/1999/xlink" xmlns:svgjs="http://svgjs.dev/svgjs" viewBox="0 0 800 800"><defs><linearGradient gradientTransform="rotate(270)" x1="50%" y1="0%" x2="50%" y2="100%" id="sssquiggly-grad"><stop stop-color="hsl(206, 75%, 49%)" stop-opacity="1" offset="0%"></stop><stop stop-color="hsl(331, 90%, 56%)" stop-opacity="1" offset="100%"></stop></linearGradient></defs><g stroke-width="2" stroke="#ffd4ac" fill="none" stroke-linecap="round" transform="matrix(1,0,0,1,0,50.883853912353516)"><path d="M10,10C21.805555555555557,11.666666666666666,40.97222222222223,22.166666666666668,66.66666666666667,18C92.36111111111111,13.833333333333332,105.55555555555557,-14.166666666666668,133.33333333333334,-10C161.11111111111111,-5.833333333333333,172.22222222222223,40.5,200,38C227.77777777777777,35.5,238.8888888888889,-24.291666666666668,266.6666666666667,-22C294.44444444444446,-19.708333333333332,305.5555555555556,44.625,333.33333333333337,49C361.11111111111114,53.375,372.22222222222223,-1.2083333333333333,400,-1C427.77777777777777,-0.7916666666666667,438.8888888888889,53.333333333333336,466.6666666666667,50C494.44444444444446,46.666666666666664,505.5555555555556,-18.041666666666668,533.3333333333334,-17C561.1111111111111,-15.958333333333334,572.2222222222222,50.416666666666664,600,55C627.7777777777778,59.583333333333336,638.8888888888889,9.583333333333332,666.6666666666667,5C694.4444444444446,0.41666666666666696,707.6388888888889,31.958333333333332,733.3333333333334,33C759.0277777777778,34.041666666666664,778.1944444444445,14.791666666666668,790,10"></path><path d="M10,10C21.805555555555557,11.666666666666666,40.97222222222223,22.166666666666668,66.66666666666667,18C92.36111111111111,13.833333333333332,105.55555555555557,-14.166666666666668,133.33333333333334,-10C161.11111111111111,-5.833333333333333,172.22222222222223,40.5,200,38C227.77777777777777,35.5,238.8888888888889,-24.291666666666668,266.6666666666667,-22C294.44444444444446,-19.708333333333332,305.5555555555556,44.625,333.33333333333337,49C361.11111111111114,53.375,372.22222222222223,-1.2083333333333333,400,-1C427.77777777777777,-0.7916666666666667,438.8888888888889,53.333333333333336,466.6666666666667,50C494.44444444444446,46.666666666666664,505.5555555555556,-18.041666666666668,533.3333333333334,-17C561.1111111111111,-15.958333333333334,572.2222222222222,50.416666666666664,600,55C627.7777777777778,59.583333333333336,638.8888888888889,9.583333333333332,666.6666666666667,5C694.4444444444446,0.41666666666666696,707.6388888888889,31.958333333333332,733.3333333333334,33C759.0277777777778,34.041666666666664,778.1944444444445,14.791666666666668,790,10" transform="matrix(1,0,0,1,0,665)"></path><path d="M10,10C21.805555555555557,11.666666666666666,40.97222222222223,22.166666666666668,66.66666666666667,18C92.36111111111111,13.833333333333332,105.55555555555557,-14.166666666666668,133.33333333333334,-10C161.11111111111111,-5.833333333333333,172.22222222222223,40.5,200,38C227.77777777777777,35.5,238.8888888888889,-24.291666666666668,266.6666666666667,-22C294.44444444444446,-19.708333333333332,305.5555555555556,44.625,333.33333333333337,49C361.11111111111114,53.375,372.22222222222223,-1.2083333333333333,400,-1C427.77777777777777,-0.7916666666666667,438.8888888888889,53.333333333333336,466.6666666666667,50C494.44444444444446,46.666666666666664,505.5555555555556,-18.041666666666668,533.3333333333334,-17C561.1111111111111,-15.958333333333334,572.2222222222222,50.416666666666664,600,55C627.7777777777778,59.583333333333336,638.8888888888889,9.583333333333332,666.6666666666667,5C694.4444444444446,0.41666666666666696,707.6388888888889,31.958333333333332,733.3333333333334,33C759.0277777777778,34.041666666666664,778.1944444444445,14.791666666666668,790,10" transform="matrix(1,0,0,1,0,630)"></path><path d="M10,10C21.805555555555557,11.666666666666666,40.97222222222223,22.166666666666668,66.66666666666667,18C92.36111111111111,13.833333333333332,105.55555555555557,-14.166666666666668,133.33333333333334,-10C161.11111111111111,-5.833333333333333,172.22222222222223,40.5,200,38C227.77777777777777,35.5,238.8888888888889,-24.291666666666668,266.6666666666667,-22C294.44444444444446,-19.708333333333332,305.5555555555556,44.625,333.33333333333337,49C361.11111111111114,53.375,372.22222222222223,-1.2083333333333333,400,-1C427.77777777777777,-0.7916666666666667,438.8888888888889,53.333333333333336,466.6666666666667,50C494.44444444444446,46.666666666666664,505.5555555555556,-18.041666666666668,533.3333333333334,-17C561.1111111111111,-15.958333333333334,572.2222222222222,50.416666666666664,600,55C627.7777777777778,59.583333333333336,638.8888888888889,9.583333333333332,666.6666666666667,5C694.4444444444446,0.41666666666666696,707.6388888888889,31.958333333333332,733.3333333333334,33C759.0277777777778,34.041666666666664,778.1944444444445,14.791666666666668,790,10" transform="matrix(1,0,0,1,0,595)"></path><path d="M10,10C21.805555555555557,11.666666666666666,40.97222222222223,22.166666666666668,66.66666666666667,18C92.36111111111111,13.833333333333332,105.55555555555557,-14.166666666666668,133.33333333333334,-10C161.11111111111111,-5.833333333333333,172.22222222222223,40.5,200,38C227.77777777777777,35.5,238.8888888888889,-24.291666666666668,266.6666666666667,-22C294.44444444444446,-19.708333333333332,305.5555555555556,44.625,333.33333333333337,49C361.11111111111114,53.375,372.22222222222223,-1.2083333333333333,400,-1C427.77777777777777,-0.7916666666666667,438.8888888888889,53.333333333333336,466.6666666666667,50C494.44444444444446,46.666666666666664,505.5555555555556,-18.041666666666668,533.3333333333334,-17C561.1111111111111,-15.958333333333334,572.2222222222222,50.416666666666664,600,55C627.7777777777778,59.583333333333336,638.8888888888889,9.583333333333332,666.6666666666667,5C694.4444444444446,0.41666666666666696,707.6388888888889,31.958333333333332,733.3333333333334,33C759.0277777777778,34.041666666666664,778.1944444444445,14.791666666666668,790,10" transform="matrix(1,0,0,1,0,560)"></path><path d="M10,10C21.805555555555557,11.666666666666666,40.97222222222223,22.166666666666668,66.66666666666667,18C92.36111111111111,13.833333333333332,105.55555555555557,-14.166666666666668,133.33333333333334,-10C161.11111111111111,-5.833333333333333,172.22222222222223,40.5,200,38C227.77777777777777,35.5,238.8888888888889,-24.291666666666668,266.6666666666667,-22C294.44444444444446,-19.708333333333332,305.5555555555556,44.625,333.33333333333337,49C361.11111111111114,53.375,372.22222222222223,-1.2083333333333333,400,-1C427.77777777777777,-0.7916666666666667,438.8888888888889,53.333333333333336,466.6666666666667,50C494.44444444444446,46.666666666666664,505.5555555555556,-18.041666666666668,533.3333333333334,-17C561.1111111111111,-15.958333333333334,572.2222222222222,50.416666666666664,600,55C627.7777777777778,59.583333333333336,638.8888888888889,9.583333333333332,666.6666666666667,5C694.4444444444446,0.41666666666666696,707.6388888888889,31.958333333333332,733.3333333333334,33C759.0277777777778,34.041666666666664,778.1944444444445,14.791666666666668,790,10" transform="matrix(1,0,0,1,0,525)"></path><path d="M10,10C21.805555555555557,11.666666666666666,40.97222222222223,22.166666666666668,66.66666666666667,18C92.36111111111111,13.833333333333332,105.55555555555557,-14.166666666666668,133.33333333333334,-10C161.11111111111111,-5.833333333333333,172.22222222222223,40.5,200,38C227.77777777777777,35.5,238.8888888888889,-24.291666666666668,266.6666666666667,-22C294.44444444444446,-19.708333333333332,305.5555555555556,44.625,333.33333333333337,49C361.11111111111114,53.375,372.22222222222223,-1.2083333333333333,400,-1C427.77777777777777,-0.7916666666666667,438.8888888888889,53.333333333333336,466.6666666666667,50C494.44444444444446,46.666666666666664,505.5555555555556,-18.041666666666668,533.3333333333334,-17C561.1111111111111,-15.958333333333334,572.2222222222222,50.416666666666664,600,55C627.7777777777778,59.583333333333336,638.8888888888889,9.583333333333332,666.6666666666667,5C694.4444444444446,0.41666666666666696,707.6388888888889,31.958333333333332,733.3333333333334,33C759.0277777777778,34.041666666666664,778.1944444444445,14.791666666666668,790,10" transform="matrix(1,0,0,1,0,490)"></path><path d="M10,10C21.805555555555557,11.666666666666666,40.97222222222223,22.166666666666668,66.66666666666667,18C92.36111111111111,13.833333333333332,105.55555555555557,-14.166666666666668,133.33333333333334,-10C161.11111111111111,-5.833333333333333,172.22222222222223,40.5,200,38C227.77777777777777,35.5,238.8888888888889,-24.291666666666668,266.6666666666667,-22C294.44444444444446,-19.708333333333332,305.5555555555556,44.625,333.33333333333337,49C361.11111111111114,53.375,372.22222222222223,-1.2083333333333333,400,-1C427.77777777777777,-0.7916666666666667,438.8888888888889,53.333333333333336,466.6666666666667,50C494.44444444444446,46.666666666666664,505.5555555555556,-18.041666666666668,533.3333333333334,-17C561.1111111111111,-15.958333333333334,572.2222222222222,50.416666666666664,600,55C627.7777777777778,59.583333333333336,638.8888888888889,9.583333333333332,666.6666666666667,5C694.4444444444446,0.41666666666666696,707.6388888888889,31.958333333333332,733.3333333333334,33C759.0277777777778,34.041666666666664,778.1944444444445,14.791666666666668,790,10" transform="matrix(1,0,0,1,0,455)"></path><path d="M10,10C21.805555555555557,11.666666666666666,40.97222222222223,22.166666666666668,66.66666666666667,18C92.36111111111111,13.833333333333332,105.55555555555557,-14.166666666666668,133.33333333333334,-10C161.11111111111111,-5.833333333333333,172.22222222222223,40.5,200,38C227.77777777777777,35.5,238.8888888888889,-24.291666666666668,266.6666666666667,-22C294.44444444444446,-19.708333333333332,305.5555555555556,44.625,333.33333333333337,49C361.11111111111114,53.375,372.22222222222223,-1.2083333333333333,400,-1C427.77777777777777,-0.7916666666666667,438.8888888888889,53.333333333333336,466.6666666666667,50C494.44444444444446,46.666666666666664,505.5555555555556,-18.041666666666668,533.3333333333334,-17C561.1111111111111,-15.958333333333334,572.2222222222222,50.416666666666664,600,55C627.7777777777778,59.583333333333336,638.8888888888889,9.583333333333332,666.6666666666667,5C694.4444444444446,0.41666666666666696,707.6388888888889,31.958333333333332,733.3333333333334,33C759.0277777777778,34.041666666666664,778.1944444444445,14.791666666666668,790,10" transform="matrix(1,0,0,1,0,420)"></path><path d="M10,10C21.805555555555557,11.666666666666666,40.97222222222223,22.166666666666668,66.66666666666667,18C92.36111111111111,13.833333333333332,105.55555555555557,-14.166666666666668,133.33333333333334,-10C161.11111111111111,-5.833333333333333,172.22222222222223,40.5,200,38C227.77777777777777,35.5,238.8888888888889,-24.291666666666668,266.6666666666667,-22C294.44444444444446,-19.708333333333332,305.5555555555556,44.625,333.33333333333337,49C361.11111111111114,53.375,372.22222222222223,-1.2083333333333333,400,-1C427.77777777777777,-0.7916666666666667,438.8888888888889,53.333333333333336,466.6666666666667,50C494.44444444444446,46.666666666666664,505.5555555555556,-18.041666666666668,533.3333333333334,-17C561.1111111111111,-15.958333333333334,572.2222222222222,50.416666666666664,600,55C627.7777777777778,59.583333333333336,638.8888888888889,9.583333333333332,666.6666666666667,5C694.4444444444446,0.41666666666666696,707.6388888888889,31.958333333333332,733.3333333333334,33C759.0277777777778,34.041666666666664,778.1944444444445,14.791666666666668,790,10" transform="matrix(1,0,0,1,0,385)"></path><path d="M10,10C21.805555555555557,11.666666666666666,40.97222222222223,22.166666666666668,66.66666666666667,18C92.36111111111111,13.833333333333332,105.55555555555557,-14.166666666666668,133.33333333333334,-10C161.11111111111111,-5.833333333333333,172.22222222222223,40.5,200,38C227.77777777777777,35.5,238.8888888888889,-24.291666666666668,266.6666666666667,-22C294.44444444444446,-19.708333333333332,305.5555555555556,44.625,333.33333333333337,49C361.11111111111114,53.375,372.22222222222223,-1.2083333333333333,400,-1C427.77777777777777,-0.7916666666666667,438.8888888888889,53.333333333333336,466.6666666666667,50C494.44444444444446,46.666666666666664,505.5555555555556,-18.041666666666668,533.3333333333334,-17C561.1111111111111,-15.958333333333334,572.2222222222222,50.416666666666664,600,55C627.7777777777778,59.583333333333336,638.8888888888889,9.583333333333332,666.6666666666667,5C694.4444444444446,0.41666666666666696,707.6388888888889,31.958333333333332,733.3333333333334,33C759.0277777777778,34.041666666666664,778.1944444444445,14.791666666666668,790,10" transform="matrix(1,0,0,1,0,350)"></path><path d="M10,10C21.805555555555557,11.666666666666666,40.97222222222223,22.166666666666668,66.66666666666667,18C92.36111111111111,13.833333333333332,105.55555555555557,-14.166666666666668,133.33333333333334,-10C161.11111111111111,-5.833333333333333,172.22222222222223,40.5,200,38C227.77777777777777,35.5,238.8888888888889,-24.291666666666668,266.6666666666667,-22C294.44444444444446,-19.708333333333332,305.5555555555556,44.625,333.33333333333337,49C361.11111111111114,53.375,372.22222222222223,-1.2083333333333333,400,-1C427.77777777777777,-0.7916666666666667,438.8888888888889,53.333333333333336,466.6666666666667,50C494.44444444444446,46.666666666666664,505.5555555555556,-18.041666666666668,533.3333333333334,-17C561.1111111111111,-15.958333333333334,572.2222222222222,50.416666666666664,600,55C627.7777777777778,59.583333333333336,638.8888888888889,9.583333333333332,666.6666666666667,5C694.4444444444446,0.41666666666666696,707.6388888888889,31.958333333333332,733.3333333333334,33C759.0277777777778,34.041666666666664,778.1944444444445,14.791666666666668,790,10" transform="matrix(1,0,0,1,0,315)"></path><path d="M10,10C21.805555555555557,11.666666666666666,40.97222222222223,22.166666666666668,66.66666666666667,18C92.36111111111111,13.833333333333332,105.55555555555557,-14.166666666666668,133.33333333333334,-10C161.11111111111111,-5.833333333333333,172.22222222222223,40.5,200,38C227.77777777777777,35.5,238.8888888888889,-24.291666666666668,266.6666666666667,-22C294.44444444444446,-19.708333333333332,305.5555555555556,44.625,333.33333333333337,49C361.11111111111114,53.375,372.22222222222223,-1.2083333333333333,400,-1C427.77777777777777,-0.7916666666666667,438.8888888888889,53.333333333333336,466.6666666666667,50C494.44444444444446,46.666666666666664,505.5555555555556,-18.041666666666668,533.3333333333334,-17C561.1111111111111,-15.958333333333334,572.2222222222222,50.416666666666664,600,55C627.7777777777778,59.583333333333336,638.8888888888889,9.583333333333332,666.6666666666667,5C694.4444444444446,0.41666666666666696,707.6388888888889,31.958333333333332,733.3333333333334,33C759.0277777777778,34.041666666666664,778.1944444444445,14.791666666666668,790,10" transform="matrix(1,0,0,1,0,280)"></path><path d="M10,10C21.805555555555557,11.666666666666666,40.97222222222223,22.166666666666668,66.66666666666667,18C92.36111111111111,13.833333333333332,105.55555555555557,-14.166666666666668,133.33333333333334,-10C161.11111111111111,-5.833333333333333,172.22222222222223,40.5,200,38C227.77777777777777,35.5,238.8888888888889,-24.291666666666668,266.6666666666667,-22C294.44444444444446,-19.708333333333332,305.5555555555556,44.625,333.33333333333337,49C361.11111111111114,53.375,372.22222222222223,-1.2083333333333333,400,-1C427.77777777777777,-0.7916666666666667,438.8888888888889,53.333333333333336,466.6666666666667,50C494.44444444444446,46.666666666666664,505.5555555555556,-18.041666666666668,533.3333333333334,-17C561.1111111111111,-15.958333333333334,572.2222222222222,50.416666666666664,600,55C627.7777777777778,59.583333333333336,638.8888888888889,9.583333333333332,666.6666666666667,5C694.4444444444446,0.41666666666666696,707.6388888888889,31.958333333333332,733.3333333333334,33C759.0277777777778,34.041666666666664,778.1944444444445,14.791666666666668,790,10" transform="matrix(1,0,0,1,0,245)"></path><path d="M10,10C21.805555555555557,11.666666666666666,40.97222222222223,22.166666666666668,66.66666666666667,18C92.36111111111111,13.833333333333332,105.55555555555557,-14.166666666666668,133.33333333333334,-10C161.11111111111111,-5.833333333333333,172.22222222222223,40.5,200,38C227.77777777777777,35.5,238.8888888888889,-24.291666666666668,266.6666666666667,-22C294.44444444444446,-19.708333333333332,305.5555555555556,44.625,333.33333333333337,49C361.11111111111114,53.375,372.22222222222223,-1.2083333333333333,400,-1C427.77777777777777,-0.7916666666666667,438.8888888888889,53.333333333333336,466.6666666666667,50C494.44444444444446,46.666666666666664,505.5555555555556,-18.041666666666668,533.3333333333334,-17C561.1111111111111,-15.958333333333334,572.2222222222222,50.416666666666664,600,55C627.7777777777778,59.583333333333336,638.8888888888889,9.583333333333332,666.6666666666667,5C694.4444444444446,0.41666666666666696,707.6388888888889,31.958333333333332,733.3333333333334,33C759.0277777777778,34.041666666666664,778.1944444444445,14.791666666666668,790,10" transform="matrix(1,0,0,1,0,210)"></path><path d="M10,10C21.805555555555557,11.666666666666666,40.97222222222223,22.166666666666668,66.66666666666667,18C92.36111111111111,13.833333333333332,105.55555555555557,-14.166666666666668,133.33333333333334,-10C161.11111111111111,-5.833333333333333,172.22222222222223,40.5,200,38C227.77777777777777,35.5,238.8888888888889,-24.291666666666668,266.6666666666667,-22C294.44444444444446,-19.708333333333332,305.5555555555556,44.625,333.33333333333337,49C361.11111111111114,53.375,372.22222222222223,-1.2083333333333333,400,-1C427.77777777777777,-0.7916666666666667,438.8888888888889,53.333333333333336,466.6666666666667,50C494.44444444444446,46.666666666666664,505.5555555555556,-18.041666666666668,533.3333333333334,-17C561.1111111111111,-15.958333333333334,572.2222222222222,50.416666666666664,600,55C627.7777777777778,59.583333333333336,638.8888888888889,9.583333333333332,666.6666666666667,5C694.4444444444446,0.41666666666666696,707.6388888888889,31.958333333333332,733.3333333333334,33C759.0277777777778,34.041666666666664,778.1944444444445,14.791666666666668,790,10" transform="matrix(1,0,0,1,0,175)"></path><path d="M10,10C21.805555555555557,11.666666666666666,40.97222222222223,22.166666666666668,66.66666666666667,18C92.36111111111111,13.833333333333332,105.55555555555557,-14.166666666666668,133.33333333333334,-10C161.11111111111111,-5.833333333333333,172.22222222222223,40.5,200,38C227.77777777777777,35.5,238.8888888888889,-24.291666666666668,266.6666666666667,-22C294.44444444444446,-19.708333333333332,305.5555555555556,44.625,333.33333333333337,49C361.11111111111114,53.375,372.22222222222223,-1.2083333333333333,400,-1C427.77777777777777,-0.7916666666666667,438.8888888888889,53.333333333333336,466.6666666666667,50C494.44444444444446,46.666666666666664,505.5555555555556,-18.041666666666668,533.3333333333334,-17C561.1111111111111,-15.958333333333334,572.2222222222222,50.416666666666664,600,55C627.7777777777778,59.583333333333336,638.8888888888889,9.583333333333332,666.6666666666667,5C694.4444444444446,0.41666666666666696,707.6388888888889,31.958333333333332,733.3333333333334,33C759.0277777777778,34.041666666666664,778.1944444444445,14.791666666666668,790,10" transform="matrix(1,0,0,1,0,140)"></path><path d="M10,10C21.805555555555557,11.666666666666666,40.97222222222223,22.166666666666668,66.66666666666667,18C92.36111111111111,13.833333333333332,105.55555555555557,-14.166666666666668,133.33333333333334,-10C161.11111111111111,-5.833333333333333,172.22222222222223,40.5,200,38C227.77777777777777,35.5,238.8888888888889,-24.291666666666668,266.6666666666667,-22C294.44444444444446,-19.708333333333332,305.5555555555556,44.625,333.33333333333337,49C361.11111111111114,53.375,372.22222222222223,-1.2083333333333333,400,-1C427.77777777777777,-0.7916666666666667,438.8888888888889,53.333333333333336,466.6666666666667,50C494.44444444444446,46.666666666666664,505.5555555555556,-18.041666666666668,533.3333333333334,-17C561.1111111111111,-15.958333333333334,572.2222222222222,50.416666666666664,600,55C627.7777777777778,59.583333333333336,638.8888888888889,9.583333333333332,666.6666666666667,5C694.4444444444446,0.41666666666666696,707.6388888888889,31.958333333333332,733.3333333333334,33C759.0277777777778,34.041666666666664,778.1944444444445,14.791666666666668,790,10" transform="matrix(1,0,0,1,0,105)"></path><path d="M10,10C21.805555555555557,11.666666666666666,40.97222222222223,22.166666666666668,66.66666666666667,18C92.36111111111111,13.833333333333332,105.55555555555557,-14.166666666666668,133.33333333333334,-10C161.11111111111111,-5.833333333333333,172.22222222222223,40.5,200,38C227.77777777777777,35.5,238.8888888888889,-24.291666666666668,266.6666666666667,-22C294.44444444444446,-19.708333333333332,305.5555555555556,44.625,333.33333333333337,49C361.11111111111114,53.375,372.22222222222223,-1.2083333333333333,400,-1C427.77777777777777,-0.7916666666666667,438.8888888888889,53.333333333333336,466.6666666666667,50C494.44444444444446,46.666666666666664,505.5555555555556,-18.041666666666668,533.3333333333334,-17C561.1111111111111,-15.958333333333334,572.2222222222222,50.416666666666664,600,55C627.7777777777778,59.583333333333336,638.8888888888889,9.583333333333332,666.6666666666667,5C694.4444444444446,0.41666666666666696,707.6388888888889,31.958333333333332,733.3333333333334,33C759.0277777777778,34.041666666666664,778.1944444444445,14.791666666666668,790,10" transform="matrix(1,0,0,1,0,70)"></path><path d="M10,10C21.805555555555557,11.666666666666666,40.97222222222223,22.166666666666668,66.66666666666667,18C92.36111111111111,13.833333333333332,105.55555555555557,-14.166666666666668,133.33333333333334,-10C161.11111111111111,-5.833333333333333,172.22222222222223,40.5,200,38C227.77777777777777,35.5,238.8888888888889,-24.291666666666668,266.6666666666667,-22C294.44444444444446,-19.708333333333332,305.5555555555556,44.625,333.33333333333337,49C361.11111111111114,53.375,372.22222222222223,-1.2083333333333333,400,-1C427.77777777777777,-0.7916666666666667,438.8888888888889,53.333333333333336,466.6666666666667,50C494.44444444444446,46.666666666666664,505.5555555555556,-18.041666666666668,533.3333333333334,-17C561.1111111111111,-15.958333333333334,572.2222222222222,50.416666666666664,600,55C627.7777777777778,59.583333333333336,638.8888888888889,9.583333333333332,666.6666666666667,5C694.4444444444446,0.41666666666666696,707.6388888888889,31.958333333333332,733.3333333333334,33C759.0277777777778,34.041666666666664,778.1944444444445,14.791666666666668,790,10" transform="matrix(1,0,0,1,0,35)"></path></g></svg>